# xmcd CD database file
#
# Track frame offsets:
#	150
#	15950
#	29132
#	47327
#	61600
#	76135
#	90807
#	111122
#	127385
#	145272
#	165945
#	185947
#	203697
#
# Disc length: 2961 seconds
#
# Revision: 0
# Processed by: cddbd v1.5PL3 Copyright (c) Steve Scherf et al.
# Submitted via: CDex 1.51
#
DISCID=9f0b8f0d
DTITLE=Del Way - Back In The Will
DYEAR=2002
DGENRE=Country
TTITLE0=Back In The Will
TTITLE1=Loving You
TTITLE2=At Calvary
TTITLE3=I Feel Jesus
TTITLE4=A Friend Indeed
TTITLE5=Granny's Gonna Run
TTITLE6=I Got What I Wanted
TTITLE7=I'll Take It Anyway
TTITLE8=Only The Blood
TTITLE9=Grace
TTITLE10=I Feel Rain
TTITLE11=Ready To Rock
TTITLE12=The Warning
EXTD=YEAR: 2002
EXTT0=
EXTT1=
EXTT2=
EXTT3=
EXTT4=
EXTT5=
EXTT6=
EXTT7=
EXTT8=
EXTT9=
EXTT10=
EXTT11=
EXTT12=
PLAYORDER=
